<svg width="195" height="45" viewBox="0 0 195 45" fill="none" xmlns="http://www.w3.org/2000/svg">
<path d="M16.8988 13.7498C11.7466 8.73683 15.2956 0 22.4842 0C29.6727 0 33.2218 8.73684 28.0695 13.7498L22.4842 19.1842L16.8988 13.7498Z" fill="#CBEA7B"/>
<path d="M16.9313 31.2502C11.7791 36.2632 15.3281 45 22.5166 45C29.7052 45 33.2542 36.2632 28.102 31.2502L22.5166 25.8158L16.9313 31.2502Z" fill="#CBEA7B"/>
<path d="M13.7498 28.1012C8.73683 33.2534 0 29.7044 0 22.5158C0 15.3273 8.73684 11.7782 13.7498 16.9305L19.1842 22.5158L13.7498 28.1012Z" fill="#CBEA7B"/>
<path d="M31.2502 28.0687C36.2632 33.2209 45 29.6719 45 22.4834C45 15.2948 36.2632 11.7458 31.2502 16.898L25.8158 22.4834L31.2502 28.0687Z" fill="#CBEA7B"/>
<path d="M64.9986 25.9424V14.6249H68.4186V30.3749H63.4911L56.5836 19.0799H56.2011V30.3749H52.7811V14.6249H57.3936V14.6474H57.7086L64.5936 25.9424H64.9986Z" fill="white"/>
<path d="M80.8611 17.7524H84.2811V30.3749H80.8611V28.5299H80.7036C79.8936 29.6549 78.7461 30.3749 76.4736 30.3749C71.1411 30.3749 71.0061 25.9199 71.0061 24.0749V17.7524H74.4036V24.0749C74.4036 25.0649 74.1786 27.4499 77.4636 27.4499C80.4111 27.4499 80.8611 25.5599 80.8611 23.8499V17.7524Z" fill="white"/>
<path d="M91.5261 20.6774V25.1549V25.4249C91.5261 27.2474 92.3361 26.9999 95.6211 26.8199V30.1499C95.6211 30.1499 94.9461 30.3749 91.5261 30.3749C88.0836 30.3749 88.0836 27.5624 88.0836 25.7399V20.6774H86.4186V17.7974H88.0836V14.1524H91.5261V17.7974H95.6211V20.6774H91.5261Z" fill="white"/>
<path d="M105.254 17.7524C106.154 17.7524 106.896 17.9549 107.481 18.0899L106.941 21.3074C106.626 21.2174 105.749 21.0374 104.669 21.0374C102.126 21.0374 101.384 23.0174 101.384 24.7274V30.3749H97.9639V17.7524H101.384V19.6199H101.586C102.306 18.4049 103.071 17.7524 105.254 17.7524Z" fill="white"/>
<path d="M112.709 30.3749H109.311V17.8424H112.709V30.3749ZM112.709 16.9424H109.311V13.8824H112.709V16.9424Z" fill="white"/>
<path d="M120.164 20.6774V25.1549V25.4249C120.164 27.2474 120.974 26.9999 124.259 26.8199V30.1499C124.259 30.1499 123.584 30.3749 120.164 30.3749C116.721 30.3749 116.721 27.5624 116.721 25.7399V20.6774H115.056V17.7974H116.721V14.1524H120.164V17.7974H124.259V20.6774H120.164Z" fill="white"/>
<path d="M129.933 30.3749H126.535V17.8424H129.933V30.3749ZM129.933 16.9424H126.535V13.8824H129.933V16.9424Z" fill="white"/>
<path d="M139.3 17.5274C143.147 17.5274 146.342 19.5749 146.342 23.9624C146.342 28.3949 143.147 30.3749 139.3 30.3749C135.475 30.3749 132.28 28.3274 132.28 23.9624C132.28 19.6199 135.475 17.5274 139.3 17.5274ZM139.3 27.2699C141.46 27.2699 142.99 26.2349 142.99 23.9624C142.99 21.6224 141.46 20.6549 139.3 20.6549C137.162 20.6549 135.632 21.5774 135.632 23.9624C135.632 26.3249 137.162 27.2699 139.3 27.2699Z" fill="white"/>
<path d="M156.445 17.7524C161.777 17.7524 161.912 22.2299 161.912 24.0749V30.3749H158.515V24.0749C158.515 23.0849 158.717 20.6999 155.455 20.6999C152.485 20.6999 152.057 22.5899 152.057 24.2999V30.3749H148.637V17.7524H152.057V19.6199H152.215C153.025 18.4949 154.172 17.7524 156.445 17.7524Z" fill="white"/>
<path d="M167.887 30.3749H164.489V17.8424H167.887V30.3749ZM167.887 16.9424H164.489V13.8824H167.887V16.9424Z" fill="white"/>
<path d="M176.719 22.7249C179.577 23.1524 182.817 23.6474 182.817 26.6399C182.817 29.7674 180.567 30.3749 176.697 30.3749C173.839 30.3749 171.882 29.8574 170.869 28.8449C169.992 27.9674 169.992 26.9099 170.014 26.2574V26.0099H173.524V26.1224C173.524 27.2024 174.334 27.6974 176.607 27.6974C177.979 27.6974 179.284 27.5174 179.284 26.6849C179.284 25.7399 178.069 25.5599 176.697 25.4024C176.517 25.3799 176.337 25.3574 176.157 25.3349C172.534 24.8624 170.284 24.0524 170.284 21.5324C170.284 19.7774 171.297 17.6849 176.157 17.6849C181.377 17.6849 182.479 20.0024 182.479 21.9374V22.0499H178.992V21.9374C178.992 20.9474 178.137 20.4074 176.157 20.4074C174.244 20.4074 173.839 21.1049 173.839 21.4874C173.839 22.0499 174.222 22.3649 176.427 22.7024L176.719 22.7249Z" fill="white"/>
<path d="M189.501 20.6774V25.1549V25.4249C189.501 27.2474 190.311 26.9999 193.596 26.8199V30.1499C193.596 30.1499 192.921 30.3749 189.501 30.3749C186.059 30.3749 186.059 27.5624 186.059 25.7399V20.6774H184.394V17.7974H186.059V14.1524H189.501V17.7974H193.596V20.6774H189.501Z" fill="white"/>
</svg>
